<svg width="260" height="56" viewBox="0 0 260 56" fill="none" xmlns="http://www.w3.org/2000/svg">
<path d="M85.9318 29.6278H92.375L94.7017 32.5511L98.6392 37.0256L103.77 43.2301H96.4318L92.7926 38.9943L90.3466 35.4744L85.9318 29.6278ZM103.71 25.6903C103.71 29.0909 103.049 31.9595 101.727 34.2962C100.404 36.6229 98.6193 38.3878 96.3722 39.5909C94.125 40.7841 91.6193 41.3807 88.8551 41.3807C86.071 41.3807 83.5554 40.7791 81.3082 39.576C79.071 38.3629 77.2912 36.593 75.9688 34.2663C74.6562 31.9297 74 29.071 74 25.6903C74 22.2898 74.6562 19.4261 75.9688 17.0994C77.2912 14.7628 79.071 12.9979 81.3082 11.8047C83.5554 10.6016 86.071 10 88.8551 10C91.6193 10 94.125 10.6016 96.3722 11.8047C98.6193 12.9979 100.404 14.7628 101.727 17.0994C103.049 19.4261 103.71 22.2898 103.71 25.6903ZM95.179 25.6903C95.179 23.8608 94.9354 22.3196 94.4482 21.0668C93.9709 19.804 93.2599 18.8494 92.3153 18.2031C91.3807 17.5469 90.2273 17.2187 88.8551 17.2187C87.483 17.2187 86.3246 17.5469 85.38 18.2031C84.4453 18.8494 83.7344 19.804 83.2472 21.0668C82.7699 22.3196 82.5312 23.8608 82.5312 25.6903C82.5312 27.5199 82.7699 29.0661 83.2472 30.3288C83.7344 31.5817 84.4453 32.5362 85.38 33.1925C86.3246 33.8388 87.483 34.1619 88.8551 34.1619C90.2273 34.1619 91.3807 33.8388 92.3153 33.1925C93.2599 32.5362 93.9709 31.5817 94.4482 30.3288C94.9354 29.0661 95.179 27.5199 95.179 25.6903Z" fill="#4E46E5"/>
<path d="M122.562 30.9403V18.054H130.795V40.9631H122.98V36.608H122.741C122.244 38.0696 121.374 39.2131 120.131 40.0384C118.888 40.8537 117.412 41.2614 115.702 41.2614C114.101 41.2614 112.699 40.8935 111.496 40.1577C110.303 39.4219 109.373 38.4077 108.707 37.1151C108.05 35.8224 107.717 34.3409 107.707 32.6705V18.054H115.94V30.9403C115.95 32.0739 116.239 32.9638 116.805 33.6101C117.382 34.2564 118.187 34.5795 119.222 34.5795C119.908 34.5795 120.499 34.4354 120.996 34.147C121.504 33.8487 121.891 33.4311 122.16 32.8942C122.438 32.3473 122.572 31.696 122.562 30.9403Z" fill="#4E46E5"/>
<path d="M141.366 41.321C139.905 41.321 138.612 41.0824 137.488 40.6051C136.375 40.1179 135.5 39.3821 134.863 38.3977C134.227 37.4134 133.909 36.1605 133.909 34.6392C133.909 33.3864 134.123 32.3175 134.55 31.4325C134.978 30.5376 135.574 29.8068 136.34 29.2401C137.106 28.6733 137.996 28.2408 139.01 27.9425C140.034 27.6442 141.138 27.4503 142.321 27.3608C143.604 27.2614 144.633 27.142 145.408 27.0028C146.194 26.8537 146.76 26.6499 147.108 26.3913C147.456 26.1229 147.631 25.7699 147.631 25.3324V25.2727C147.631 24.6761 147.402 24.2188 146.944 23.9006C146.487 23.5824 145.9 23.4233 145.184 23.4233C144.399 23.4233 143.758 23.5973 143.26 23.9453C142.773 24.2834 142.48 24.8054 142.381 25.5114H134.804C134.903 24.1193 135.346 22.8366 136.131 21.6634C136.927 20.4801 138.085 19.5355 139.606 18.8295C141.128 18.1136 143.027 17.7557 145.304 17.7557C146.944 17.7557 148.416 17.9496 149.719 18.3374C151.021 18.7152 152.13 19.2472 153.045 19.9332C153.959 20.6094 154.655 21.4048 155.133 22.3196C155.62 23.2244 155.863 24.2088 155.863 25.2727V40.9631H148.167V37.7415H147.988C147.531 38.5966 146.974 39.2876 146.318 39.8146C145.672 40.3416 144.931 40.7244 144.096 40.9631C143.27 41.2017 142.361 41.321 141.366 41.321ZM144.051 36.1307C144.677 36.1307 145.264 36.0014 145.811 35.7429C146.368 35.4844 146.82 35.1115 147.168 34.6243C147.516 34.1371 147.69 33.5455 147.69 32.8494V30.9403C147.471 31.0298 147.238 31.1143 146.989 31.1939C146.751 31.2734 146.492 31.348 146.214 31.4176C145.945 31.4872 145.657 31.5518 145.349 31.6115C145.05 31.6712 144.737 31.7259 144.409 31.7756C143.773 31.875 143.251 32.0391 142.843 32.2678C142.445 32.4865 142.147 32.7599 141.948 33.0881C141.759 33.4063 141.665 33.7642 141.665 34.1619C141.665 34.7983 141.888 35.2855 142.336 35.6236C142.783 35.9616 143.355 36.1307 144.051 36.1307Z" fill="#4E46E5"/>
<path d="M159.797 40.9631V18.054H167.792V22.4091H168.03C168.448 20.7983 169.109 19.62 170.014 18.8743C170.929 18.1286 171.998 17.7557 173.221 17.7557C173.578 17.7557 173.931 17.7855 174.279 17.8452C174.637 17.8949 174.98 17.9695 175.309 18.0689V25.0938C174.901 24.9545 174.399 24.8501 173.802 24.7805C173.206 24.7109 172.694 24.6761 172.266 24.6761C171.461 24.6761 170.735 24.8601 170.088 25.228C169.452 25.5859 168.95 26.093 168.582 26.7493C168.214 27.3956 168.03 28.1562 168.03 29.0312V40.9631H159.797Z" fill="#4E46E5"/>
<path d="M192.613 18.054V24.0199H177.52V18.054H192.613ZM180.443 12.5653H188.676V33.5952C188.676 33.9134 188.731 34.1818 188.84 34.4006C188.949 34.6094 189.118 34.7685 189.347 34.8778C189.576 34.9773 189.869 35.027 190.227 35.027C190.476 35.027 190.764 34.9972 191.092 34.9375C191.43 34.8778 191.679 34.8281 191.838 34.7884L193.031 40.5753C192.663 40.6847 192.136 40.8189 191.45 40.978C190.774 41.1371 189.969 41.2415 189.034 41.2912C187.145 41.3906 185.559 41.1967 184.276 40.7095C182.993 40.2124 182.029 39.4318 181.383 38.3679C180.736 37.304 180.423 35.9716 180.443 34.3707V12.5653Z" fill="#4E46E5"/>
<path d="M206.704 41.3807C204.258 41.3807 202.15 40.9134 200.38 39.9787C198.62 39.0341 197.263 37.6818 196.309 35.9219C195.364 34.152 194.892 32.0341 194.892 29.5682C194.892 27.2017 195.369 25.1335 196.324 23.3636C197.278 21.5938 198.625 20.2166 200.365 19.2322C202.105 18.2479 204.159 17.7557 206.525 17.7557C208.255 17.7557 209.821 18.0241 211.223 18.5611C212.625 19.098 213.824 19.8786 214.818 20.9027C215.812 21.9169 216.578 23.1499 217.115 24.6016C217.652 26.0533 217.92 27.6889 217.92 29.5085V31.4176H197.457V26.8835H210.343C210.333 26.2273 210.164 25.6506 209.836 25.1534C209.518 24.6463 209.086 24.2536 208.539 23.9751C208.002 23.6868 207.39 23.5426 206.704 23.5426C206.038 23.5426 205.426 23.6868 204.87 23.9751C204.313 24.2536 203.865 24.6413 203.527 25.1385C203.199 25.6357 203.025 26.2173 203.005 26.8835V31.7756C203.005 32.5114 203.159 33.1676 203.468 33.7443C203.776 34.321 204.218 34.7734 204.795 35.1016C205.372 35.4297 206.068 35.5938 206.883 35.5938C207.45 35.5938 207.967 35.5142 208.434 35.3551C208.912 35.196 209.319 34.9673 209.657 34.669C209.995 34.3608 210.244 33.9929 210.403 33.5653H217.92C217.662 35.1563 217.05 36.5384 216.086 37.7117C215.121 38.875 213.843 39.7798 212.252 40.4261C210.672 41.0625 208.822 41.3807 206.704 41.3807Z" fill="#4E46E5"/>
<path d="M234.942 18.054V24.0199H219.848V18.054H234.942ZM222.771 12.5653H231.004V33.5952C231.004 33.9134 231.059 34.1818 231.168 34.4006C231.278 34.6094 231.447 34.7685 231.675 34.8778C231.904 34.9773 232.197 35.027 232.555 35.027C232.804 35.027 233.092 34.9972 233.42 34.9375C233.758 34.8778 234.007 34.8281 234.166 34.7884L235.359 40.5753C234.991 40.6847 234.464 40.8189 233.778 40.978C233.102 41.1371 232.297 41.2415 231.362 41.2912C229.473 41.3906 227.887 41.1967 226.604 40.7095C225.322 40.2124 224.357 39.4318 223.711 38.3679C223.064 37.304 222.751 35.9716 222.771 34.3707V12.5653Z" fill="#4E46E5"/>
<path d="M258.995 25.5114H251.419C251.379 25.044 251.215 24.6413 250.926 24.3033C250.638 23.9652 250.265 23.7067 249.808 23.5277C249.36 23.3388 248.863 23.2443 248.316 23.2443C247.61 23.2443 247.004 23.3736 246.497 23.6321C245.99 23.8906 245.741 24.2585 245.751 24.7358C245.741 25.0739 245.885 25.3871 246.184 25.6754C246.492 25.9638 247.083 26.1875 247.958 26.3466L252.612 27.1818C254.958 27.6094 256.703 28.3303 257.847 29.3445C259 30.3487 259.582 31.696 259.592 33.3864C259.582 35.017 259.095 36.434 258.13 37.6371C257.176 38.8303 255.868 39.755 254.208 40.4112C252.557 41.0575 250.673 41.3807 248.555 41.3807C245.055 41.3807 242.316 40.6648 240.337 39.233C238.368 37.8011 237.27 35.9119 237.041 33.5653H245.214C245.324 34.2912 245.681 34.853 246.288 35.2507C246.904 35.6385 247.68 35.8324 248.615 35.8324C249.37 35.8324 249.992 35.7031 250.479 35.4446C250.976 35.1861 251.23 34.8182 251.24 34.3409C251.23 33.9034 251.011 33.5554 250.583 33.2969C250.166 33.0384 249.51 32.8295 248.615 32.6705L244.558 31.9545C242.221 31.5469 240.471 30.7713 239.308 29.6278C238.145 28.4844 237.568 27.0128 237.578 25.2131C237.568 23.6222 237.985 22.2749 238.831 21.1712C239.686 20.0575 240.904 19.2124 242.485 18.6357C244.076 18.049 245.96 17.7557 248.137 17.7557C251.449 17.7557 254.059 18.4418 255.968 19.8139C257.887 21.1861 258.896 23.0852 258.995 25.5114Z" fill="#4E46E5"/>
<rect x="1.3284" y="7.03337" width="31" height="45" rx="5" transform="rotate(-10 1.3284 7.03337)" fill="#4E46E5" stroke="white" stroke-width="3"/>
<rect x="10" y="3" width="31" height="45" rx="5" fill="#4E46E5" stroke="white" stroke-width="3"/>
<rect x="20.8142" y="2" width="31" height="45" rx="5" transform="rotate(10 20.8142 2)" fill="#4E46E5" stroke="white" stroke-width="3"/>
<rect x="34.3909" y="3" width="31" height="45" rx="5" transform="rotate(20 34.3909 3)" fill="#4E46E5" stroke="white" stroke-width="3"/>
</svg>
